<svg width="120" height="120" viewBox="0 0 120 120" fill="none" xmlns="http://www.w3.org/2000/svg">
<path fill-rule="evenodd" clip-rule="evenodd" d="M32 12C20.9543 12 12 20.9543 12 32V87C12 98.0457 20.9543 107 32 107H87C98.0457 107 107 98.0457 107 87V32C107 20.9543 98.0457 12 87 12H32ZM36.125 19.125C26.7362 19.125 19.125 26.7362 19.125 36.125V82.875C19.125 92.2638 26.7362 99.875 36.125 99.875H82.875C92.2638 99.875 99.875 92.2638 99.875 82.875V36.125C99.875 26.7362 92.2638 19.125 82.875 19.125H36.125Z" fill="black"/>
</svg>
