<svg width="120" height="120" viewBox="0 0 120 120" fill="none" xmlns="http://www.w3.org/2000/svg">
<path fill-rule="evenodd" clip-rule="evenodd" d="M32 12C20.9543 12 12 20.9543 12 32V87C12 98.0457 20.9543 107 32 107H87C98.0457 107 107 98.0457 107 87V32C107 20.9543 98.0457 12 87 12H32ZM89.6597 45.2042C91.4293 43.4591 91.4492 40.61 89.7042 38.8403C87.9591 37.0707 85.11 37.0508 83.3403 38.7958L50.57 71.111L37.2291 57.3659C35.4982 55.5825 32.6493 55.5399 30.8659 57.2709C29.0825 59.0018 29.0399 61.8507 30.7709 63.6341L47.2709 80.6341C48.1064 81.495 49.2511 81.9866 50.4507 81.9997C51.6503 82.0129 52.8055 81.5465 53.6597 80.7042L89.6597 45.2042Z" fill="black"/>
</svg>
